General

Complete name                            : Siftaan - Money Aujla Feat. Yo Yo Honey Singh -  x264 - [HD] 1080 - AC3 5.1  - By -- [{(paras31)}]
Format                                   : Matroska
Format version                           : Version 2
File size                                : 101 MiB
Duration                                 : 3mn 58s
Overall bit rate mode                    : Variable
Overall bit rate                         : 3 551 Kbps



Video

ID                                       : 1
Format                                   : AVC
Format/Info                              : Advanced Video Codec
Format profile                           : High@L4.1
Codec ID                                 : V_MPEG4/ISO/AVC
Duration                                 : 3mn 58s
Bit rate                                 : 3 159 Kbps
Width                                    : 1 920 pixels
Height                                   : 1 080 pixels
Frame rate                               : 25.000 fps
Stream size                              : 88.1 MiB (87%)
Title                                    : By -- [{(paras31)}]
Writing library                          : x264 core 129 r2230 1cffe9f
Language                                 : Hindi

Audio

ID                                       : 2
Format                                   : AC-3
Format/Info                              : Audio Coding 3
Duration                                 : 3mn 58s
Bit rate mode                            : Constant
Bit rate                                 : 384 Kbps
Channel(s)                               : 6 channels
Channel positions                        : Front: L C R, Side: L R, LFE
Sampling rate                            : 48.0 KHz
Bit depth                                : 16 bits
Stream size                              : 10.9 MiB (11%)
Title                                    : By -- [{(paras31)}]
Language                                 : Hindi



Screens

[URL=http://imgbox.com/adfFaMNh][IMG]http://t.imgbox.com/adfFaMNh.jpg[/IMG][/URL] 

[URL=http://imgbox.com/abkYi6sc][IMG]http://t.imgbox.com/abkYi6sc.jpg[/IMG][/URL] 

[URL=http://imgbox.com/abl0aSa0][IMG]http://t.imgbox.com/abl0aSa0.jpg[/IMG][/URL] 

[URL=http://imgbox.com/abqBE7kS][IMG]http://t.imgbox.com/abqBE7kS.jpg[/IMG][/URL] 

[URL=http://imgbox.com/abnwC4Xb][IMG]http://t.imgbox.com/abnwC4Xb.jpg[/IMG][/URL] 

[URL=http://imgbox.com/abcg9urV][IMG]http://t.imgbox.com/abcg9urV.jpg[/IMG][/URL] 

[URL=http://imgbox.com/adwzNBeq][IMG]http://t.imgbox.com/adwzNBeq.jpg[/IMG][/URL] 

[URL=http://imgbox.com/abiMhFoj][IMG]http://t.imgbox.com/abiMhFoj.jpg[/IMG][/URL] 

[URL=http://imgbox.com/abqKi62S][IMG]http://t.imgbox.com/abqKi62S.jpg[/IMG][/URL] 

[URL=http://imgbox.com/abqfTWaR][IMG]http://t.imgbox.com/abqfTWaR.jpg[/IMG][/URL] 

[URL=http://imgbox.com/acoO0Dik][IMG]http://t.imgbox.com/acoO0Dik.jpg[/IMG][/URL] 

[URL=http://imgbox.com/acv4u3Ac][IMG]http://t.imgbox.com/acv4u3Ac.jpg[/IMG][/URL] 

[URL=http://imgbox.com/acyIzA14][IMG]http://t.imgbox.com/acyIzA14.jpg[/IMG][/URL] 
